# xmcd
#
# Track frame offsets:
#	150
#	52074
#	65635
#	103171
#	130858
#	167369
#	224737
#	230065
#	259562
#
# Disc length: 3703 seconds
#
# Revision: 1
# Processed by: cddbd v1.5.2PL0 Copyright (c) Steve Scherf et al.
# Submitted via: audiograbber 1.83.01
#
DISCID=880e7509
DTITLE=Grateful Dead - 72-10-24 Performing Arts Centre, Milwaukee WI
DYEAR=1900
DGENRE=
TTITLE0=Truckin'
TTITLE1=Drums
TTITLE2=The Other One
TTITLE3="Philo Stomp"
TTITLE4=Space
TTITLE5=He's Gone
TTITLE6=The Other One
TTITLE7=Casey Jones
TTITLE8=Johnny B Goode
EXTD=
EXTT0=
EXTT1=
EXTT2=
EXTT3=
EXTT4=
EXTT5=
EXTT6=
EXTT7=
EXTT8=
PLAYORDER=
